<svg width="24" height="24" viewBox="0 0 24 24" fill="none" xmlns="http://www.w3.org/2000/svg">
<path fill-rule="evenodd" clip-rule="evenodd" d="M13.6628 6.1122C11.6239 4.07328 8.31812 4.07328 6.2792 6.1122C4.24027 8.15113 4.24027 11.4569 6.2792 13.4958C8.28524 15.5019 11.5176 15.5342 13.5632 13.5929C13.5817 13.5697 13.6017 13.5474 13.6233 13.5261C13.6457 13.504 13.6692 13.4836 13.6935 13.4648C15.7017 11.4236 15.6914 8.14084 13.6628 6.1122ZM15.1871 14.0433C17.3378 11.4035 17.1833 7.51136 14.7235 5.05154C12.0988 2.42683 7.84325 2.42683 5.21854 5.05154C2.59382 7.67626 2.59382 11.9318 5.21854 14.5565C7.64958 16.9875 11.4796 17.1669 14.1171 15.0946L19.4661 20.5167C19.757 20.8116 20.2319 20.8148 20.5268 20.5239C20.8216 20.233 20.8249 19.7582 20.534 19.4633L15.1871 14.0433Z" fill="white"/>
</svg>
